<svg width="154" height="45" viewBox="0 0 154 45" fill="none" xmlns="http://www.w3.org/2000/svg">
<path d="M24.9 12.06V33H20.7V19.38L15.09 33H11.91L6.27 19.38V33H2.07V12.06H6.84L13.5 27.63L20.16 12.06H24.9ZM27.9724 24.63C27.9724 22.95 28.3024 21.46 28.9624 20.16C29.6424 18.86 30.5524 17.86 31.6924 17.16C32.8524 16.46 34.1424 16.11 35.5624 16.11C36.8024 16.11 37.8824 16.36 38.8024 16.86C39.7424 17.36 40.4924 17.99 41.0524 18.75V16.38H45.2824V33H41.0524V30.57C40.5124 31.35 39.7624 32 38.8024 32.52C37.8624 33.02 36.7724 33.27 35.5324 33.27C34.1324 33.27 32.8524 32.91 31.6924 32.19C30.5524 31.47 29.6424 30.46 28.9624 29.16C28.3024 27.84 27.9724 26.33 27.9724 24.63ZM41.0524 24.69C41.0524 23.67 40.8524 22.8 40.4524 22.08C40.0524 21.34 39.5124 20.78 38.8324 20.4C38.1524 20 37.4224 19.8 36.6424 19.8C35.8624 19.8 35.1424 19.99 34.4824 20.37C33.8224 20.75 33.2824 21.31 32.8624 22.05C32.4624 22.77 32.2624 23.63 32.2624 24.63C32.2624 25.63 32.4624 26.51 32.8624 27.27C33.2824 28.01 33.8224 28.58 34.4824 28.98C35.1624 29.38 35.8824 29.58 36.6424 29.58C37.4224 29.58 38.1524 29.39 38.8324 29.01C39.5124 28.61 40.0524 28.05 40.4524 27.33C40.8524 26.59 41.0524 25.71 41.0524 24.69ZM58.5945 16.14C60.5745 16.14 62.1745 16.77 63.3945 18.03C64.6145 19.27 65.2245 21.01 65.2245 23.25V33H61.0245V23.82C61.0245 22.5 60.6945 21.49 60.0345 20.79C59.3745 20.07 58.4745 19.71 57.3345 19.71C56.1745 19.71 55.2545 20.07 54.5745 20.79C53.9145 21.49 53.5845 22.5 53.5845 23.82V33H49.3845V16.38H53.5845V18.45C54.1445 17.73 54.8545 17.17 55.7145 16.77C56.5945 16.35 57.5545 16.14 58.5945 16.14ZM73.4184 18.81C73.9584 18.01 74.6984 17.36 75.6384 16.86C76.5984 16.36 77.6884 16.11 78.9084 16.11C80.3284 16.11 81.6084 16.46 82.7484 17.16C83.9084 17.86 84.8184 18.86 85.4784 20.16C86.1584 21.44 86.4984 22.93 86.4984 24.63C86.4984 26.33 86.1584 27.84 85.4784 29.16C84.8184 30.46 83.9084 31.47 82.7484 32.19C81.6084 32.91 80.3284 33.27 78.9084 33.27C77.6684 33.27 76.5784 33.03 75.6384 32.55C74.7184 32.05 73.9784 31.41 73.4184 30.63V33H69.2184V10.8H73.4184V18.81ZM82.2084 24.63C82.2084 23.63 81.9984 22.77 81.5784 22.05C81.1784 21.31 80.6384 20.75 79.9584 20.37C79.2984 19.99 78.5784 19.8 77.7984 19.8C77.0384 19.8 76.3184 20 75.6384 20.4C74.9784 20.78 74.4384 21.34 74.0184 22.08C73.6184 22.82 73.4184 23.69 73.4184 24.69C73.4184 25.69 73.6184 26.56 74.0184 27.3C74.4384 28.04 74.9784 28.61 75.6384 29.01C76.3184 29.39 77.0384 29.58 77.7984 29.58C78.5784 29.58 79.2984 29.38 79.9584 28.98C80.6384 28.58 81.1784 28.01 81.5784 27.27C81.9984 26.53 82.2084 25.65 82.2084 24.63ZM88.4705 24.63C88.4705 22.95 88.8005 21.46 89.4605 20.16C90.1405 18.86 91.0505 17.86 92.1905 17.16C93.3505 16.46 94.6405 16.11 96.0605 16.11C97.3005 16.11 98.3805 16.36 99.3005 16.86C100.24 17.36 100.99 17.99 101.55 18.75V16.38H105.78V33H101.55V30.57C101.01 31.35 100.26 32 99.3005 32.52C98.3605 33.02 97.2705 33.27 96.0305 33.27C94.6305 33.27 93.3505 32.91 92.1905 32.19C91.0505 31.47 90.1405 30.46 89.4605 29.16C88.8005 27.84 88.4705 26.33 88.4705 24.63ZM101.55 24.69C101.55 23.67 101.35 22.8 100.95 22.08C100.55 21.34 100.01 20.78 99.3305 20.4C98.6505 20 97.9205 19.8 97.1405 19.8C96.3605 19.8 95.6405 19.99 94.9805 20.37C94.3205 20.75 93.7805 21.31 93.3605 22.05C92.9605 22.77 92.7605 23.63 92.7605 24.63C92.7605 25.63 92.9605 26.51 93.3605 27.27C93.7805 28.01 94.3205 28.58 94.9805 28.98C95.6605 29.38 96.3805 29.58 97.1405 29.58C97.9205 29.58 98.6505 29.39 99.3305 29.01C100.01 28.61 100.55 28.05 100.95 27.33C101.35 26.59 101.55 25.71 101.55 24.69ZM114.083 10.8V33H109.883V10.8H114.083Z" fill="#4F4F4F"/>
<path d="M120.93 33.21C120.17 33.21 119.54 32.98 119.04 32.52C118.56 32.04 118.32 31.45 118.32 30.75C118.32 30.05 118.56 29.47 119.04 29.01C119.54 28.53 120.17 28.29 120.93 28.29C121.67 28.29 122.28 28.53 122.76 29.01C123.24 29.47 123.48 30.05 123.48 30.75C123.48 31.45 123.24 32.04 122.76 32.52C122.28 32.98 121.67 33.21 120.93 33.21ZM125.783 24.63C125.783 22.95 126.113 21.46 126.773 20.16C127.453 18.86 128.363 17.86 129.503 17.16C130.663 16.46 131.953 16.11 133.373 16.11C134.613 16.11 135.693 16.36 136.613 16.86C137.553 17.36 138.303 17.99 138.863 18.75V16.38H143.093V33H138.863V30.57C138.323 31.35 137.573 32 136.613 32.52C135.673 33.02 134.583 33.27 133.343 33.27C131.943 33.27 130.663 32.91 129.503 32.19C128.363 31.47 127.453 30.46 126.773 29.16C126.113 27.84 125.783 26.33 125.783 24.63ZM138.863 24.69C138.863 23.67 138.663 22.8 138.263 22.08C137.863 21.34 137.323 20.78 136.643 20.4C135.963 20 135.233 19.8 134.453 19.8C133.673 19.8 132.953 19.99 132.293 20.37C131.633 20.75 131.093 21.31 130.673 22.05C130.273 22.77 130.073 23.63 130.073 24.63C130.073 25.63 130.273 26.51 130.673 27.27C131.093 28.01 131.633 28.58 132.293 28.98C132.973 29.38 133.693 29.58 134.453 29.58C135.233 29.58 135.963 29.39 136.643 29.01C137.323 28.61 137.863 28.05 138.263 27.33C138.663 26.59 138.863 25.71 138.863 24.69ZM149.325 14.4C148.585 14.4 147.965 14.17 147.465 13.71C146.985 13.23 146.745 12.64 146.745 11.94C146.745 11.24 146.985 10.66 147.465 10.2C147.965 9.72 148.585 9.48 149.325 9.48C150.065 9.48 150.675 9.72 151.155 10.2C151.655 10.66 151.905 11.24 151.905 11.94C151.905 12.64 151.655 13.23 151.155 13.71C150.675 14.17 150.065 14.4 149.325 14.4ZM151.395 16.38V33H147.195V16.38H151.395Z" fill="#0278AE"/>
</svg>
